<?xml version="1.0" standalone="no"?>
<svg xmlns="http://www.w3.org/2000/svg" viewBox="0 0 99 72" width="99" height="72"><g fill="#4ad0ff" color="#4ad0ff" transform="translate(37.033 0) scale(0.8333334) "><svg width="29.0" height="48.0" x="0.0" y="0.0" viewBox="0 0 29 48"><path fill="currentColor" fill-rule="evenodd" d="M24 28.8l4.8 4.8L14.4 48 0 33.6l4.8-4.8 9.6 9.6 9.6-9.6zm-9.6-14.4L24 24l-9.6 9.6L4.8 24l9.6-9.6zm0-14.4l14.4 14.4-4.8 4.8-9.6-9.6-9.6 9.6L0 14.4 14.4 0z"></path></svg></g><path fill="#0019ff" fill-rule="nonzero" d="M12.38 14.02L12.38 14.02Q12.38 16.39 11.10 17.66Q9.82 18.94 7.51 18.94L7.51 18.94L5.21 18.94Q2.38 18.94 1.19 17.95Q0 16.97 0 14.54L0 14.54L0 1.85L7.22 1.85Q9.67 1.85 10.91 3.07Q12.14 4.30 12.14 6.53L12.14 6.53Q12.14 7.82 11.48 8.74Q10.82 9.65 10.03 10.03L10.03 10.03Q12.38 11.14 12.38 14.02ZM3.34 8.52L6.96 8.52Q8.81 8.52 8.81 6.67Q8.81 4.82 6.96 4.82L6.96 4.82L3.34 4.82L3.34 8.52ZM9.05 13.85L9.05 13.85Q9.05 12.70 8.64 12.11Q8.23 11.52 7.18 11.52L7.18 11.52L3.34 11.52L3.34 14.21Q3.34 15.19 3.83 15.58Q4.32 15.96 5.45 15.96L5.45 15.96L7.18 15.96Q9.05 15.96 9.05 13.85ZM22.27 5.23L25.56 5.23L20.35 20.47Q19.99 21.50 19.42 22.08L19.42 22.08Q18.46 23.04 16.73 23.04L16.73 23.04L15.26 23.04L15.26 20.23L16.22 20.23Q16.90 20.23 17.22 20.00Q17.54 19.78 17.78 19.10L17.78 19.10L18.02 18.43L13.90 5.23L17.18 5.23L19.63 14.76L22.27 5.23ZM33.26 16.30L33.26 18.94L31.32 18.94Q29.54 18.94 28.62 17.88Q27.70 16.82 27.70 15.36L27.70 15.36L27.70 8.16L26.38 8.16L26.38 5.78L27.70 5.78L27.70 3.10L30.82 3.10L30.82 5.78L33.02 5.78L33.02 8.16L30.82 8.16L30.82 15.17Q30.82 16.30 31.90 16.30L31.90 16.30L33.26 16.30ZM46.13 12.82L46.13 12.82L38.14 12.82Q38.14 14.69 38.72 15.55Q39.31 16.42 41.09 16.42L41.09 16.42Q42.24 16.42 42.79 15.68Q43.34 14.95 43.34 14.28L43.34 14.28L46.15 14.28Q46.15 16.85 44.77 18.05Q43.39 19.25 41.12 19.25Q38.86 19.25 37.61 18.60L37.61 18.60Q35.04 17.28 35.04 11.59L35.04 11.59Q35.04 8.21 36.50 6.64Q37.97 5.06 40.97 5.06L40.97 5.06Q46.18 5.06 46.18 10.85L46.18 10.85Q46.18 11.47 46.13 12.82ZM38.21 10.68L38.21 10.68L43.34 10.68Q43.34 9.10 42.74 8.38Q42.14 7.66 40.91 7.66Q39.67 7.66 38.94 8.39Q38.21 9.12 38.21 10.68ZM60.36 1.85L60.36 4.82L55.78 4.82L55.78 18.94L52.44 18.94L52.44 4.82L47.88 4.82L47.88 1.85L60.36 1.85ZM64.30 0Q65.42 0 65.76 0.35Q66.10 0.70 66.10 1.81Q66.10 2.93 65.75 3.28Q65.40 3.62 64.28 3.62Q63.17 3.62 62.82 3.26Q62.47 2.90 62.47 1.80Q62.47 0.70 62.82 0.35Q63.17 0 64.30 0ZM65.83 5.74L65.83 18.94L62.71 18.94L62.71 5.74L65.83 5.74ZM72.31 0.89L72.31 18.94L69.19 18.96L69.19 0.89L72.31 0.89ZM85.94 12.82L85.94 12.82L77.95 12.82Q77.95 14.69 78.54 15.55Q79.13 16.42 80.90 16.42L80.90 16.42Q82.06 16.42 82.61 15.68Q83.16 14.95 83.16 14.28L83.16 14.28L85.97 14.28Q85.97 16.85 84.59 18.05Q83.21 19.25 80.94 19.25Q78.67 19.25 77.42 18.60L77.42 18.60Q74.86 17.28 74.86 11.59L74.86 11.59Q74.86 8.21 76.32 6.64Q77.78 5.06 80.78 5.06L80.78 5.06Q85.99 5.06 85.99 10.85L85.99 10.85Q85.99 11.47 85.94 12.82ZM78.02 10.68L78.02 10.68L83.16 10.68Q83.16 9.10 82.56 8.38Q81.96 7.66 80.72 7.66Q79.49 7.66 78.76 8.39Q78.02 9.12 78.02 10.68ZM98.23 15.14L98.23 15.14L98.23 15.50Q98.09 17.30 96.71 18.22Q95.33 19.13 93.26 19.13L93.26 19.13Q90.22 19.13 88.99 18.02L88.99 18.02Q87.86 17.02 87.86 15.05L87.86 15.05L87.86 14.76L90.70 14.76Q90.70 15.86 91.27 16.27Q91.85 16.68 93.26 16.68L93.26 16.68Q95.18 16.68 95.18 15.29L95.18 15.29Q95.18 14.14 94.51 13.75L94.51 13.75Q94.20 13.56 93.72 13.46L93.72 13.46L91.30 13.06Q88.13 12.55 88.13 9.10L88.13 9.10Q88.13 7.18 89.53 6.11Q90.94 5.04 93.10 5.04L93.10 5.04Q98.02 5.04 98.02 9.29L98.02 9.29L98.02 9.60L95.30 9.60Q95.26 8.47 94.70 8.06Q94.15 7.66 93.16 7.66Q92.16 7.66 91.66 8.05Q91.15 8.45 91.15 8.93L91.15 8.93Q91.15 10.30 92.26 10.49L92.26 10.49L95.16 11.02Q98.23 11.59 98.23 15.14Z" transform="translate(0, 48)"></path></svg>